<svg xmlns="http://www.w3.org/2000/svg" viewBox="0 0 384 384" fill="none">
  <rect width="384" height="384" fill="#000000" rx="96"/>
  <g transform="translate(79.488, 79.488)">
    <path d="M112.512 0C50.304 0 0 50.304 0 112.512s50.304 112.512 112.512 112.512 112.512-50.304 112.512-112.512S174.72 0 112.512 0zm0 202.368c-49.536 0-89.85600000000001-40.32-89.85600000000001-89.85600000000001S62.976 22.656 112.512 22.656s89.85600000000001 40.32 89.85600000000001 89.85600000000001-40.32 89.85600000000001-89.85600000000001 89.85600000000001z" fill="#ffffff"/>
    <circle cx="112.512" cy="67.584" r="14.975999999999999" fill="#ffffff"/>
    <circle cx="67.584" cy="112.512" r="14.975999999999999" fill="#ffffff"/>
    <circle cx="112.512" cy="157.44" r="14.975999999999999" fill="#ffffff"/>
    <circle cx="157.44" cy="112.512" r="14.975999999999999" fill="#ffffff"/>
    <circle cx="112.512" cy="112.512" r="22.656" fill="#ffffff"/>
  </g>
</svg>