<svg xmlns="http://www.w3.org/2000/svg" viewBox="0 0 96 96" fill="none">
  <rect width="96" height="96" fill="#000000" rx="24"/>
  <g transform="translate(19.872, 19.872)">
    <path d="M28.128 0C12.576 0 0 12.576 0 28.128s12.576 28.128 28.128 28.128 28.128-12.576 28.128-28.128S43.68 0 28.128 0zm0 50.592c-12.384 0-22.464000000000002-10.08-22.464000000000002-22.464000000000002S15.744 5.664 28.128 5.664s22.464000000000002 10.08 22.464000000000002 22.464000000000002-10.08 22.464000000000002-22.464000000000002 22.464000000000002z" fill="#ffffff"/>
    <circle cx="28.128" cy="16.896" r="3.7439999999999998" fill="#ffffff"/>
    <circle cx="16.896" cy="28.128" r="3.7439999999999998" fill="#ffffff"/>
    <circle cx="28.128" cy="39.36" r="3.7439999999999998" fill="#ffffff"/>
    <circle cx="39.36" cy="28.128" r="3.7439999999999998" fill="#ffffff"/>
    <circle cx="28.128" cy="28.128" r="5.664" fill="#ffffff"/>
  </g>
</svg>