<svg xmlns="http://www.w3.org/2000/svg" viewBox="0 0 512 512" fill="none">
  <rect width="512" height="512" fill="#000000" rx="128"/>
  <g transform="translate(105.984, 105.984)">
    <path d="M150.016 0C67.072 0 0 67.072 0 150.016s67.072 150.016 150.016 150.016 150.016-67.072 150.016-150.016S232.96 0 150.016 0zm0 269.824c-66.048 0-119.808-53.76-119.808-119.808S83.968 30.208 150.016 30.208s119.808 53.76 119.808 119.808-53.76 119.808-119.808 119.808z" fill="#ffffff"/>
    <circle cx="150.016" cy="90.112" r="19.968" fill="#ffffff"/>
    <circle cx="90.112" cy="150.016" r="19.968" fill="#ffffff"/>
    <circle cx="150.016" cy="209.92" r="19.968" fill="#ffffff"/>
    <circle cx="209.92" cy="150.016" r="19.968" fill="#ffffff"/>
    <circle cx="150.016" cy="150.016" r="30.208" fill="#ffffff"/>
  </g>
</svg>