<svg xmlns="http://www.w3.org/2000/svg" viewBox="0 0 192 192" fill="none">
  <rect width="192" height="192" fill="#000000" rx="48"/>
  <g transform="translate(39.744, 39.744)">
    <path d="M56.256 0C25.152 0 0 25.152 0 56.256s25.152 56.256 56.256 56.256 56.256-25.152 56.256-56.256S87.36 0 56.256 0zm0 101.184c-24.768 0-44.928000000000004-20.16-44.928000000000004-44.928000000000004S31.488 11.328 56.256 11.328s44.928000000000004 20.16 44.928000000000004 44.928000000000004-20.16 44.928000000000004-44.928000000000004 44.928000000000004z" fill="#ffffff"/>
    <circle cx="56.256" cy="33.792" r="7.4879999999999995" fill="#ffffff"/>
    <circle cx="33.792" cy="56.256" r="7.4879999999999995" fill="#ffffff"/>
    <circle cx="56.256" cy="78.72" r="7.4879999999999995" fill="#ffffff"/>
    <circle cx="78.72" cy="56.256" r="7.4879999999999995" fill="#ffffff"/>
    <circle cx="56.256" cy="56.256" r="11.328" fill="#ffffff"/>
  </g>
</svg>