<svg width="15" height="23" viewBox="0 0 15 23" fill="none" xmlns="http://www.w3.org/2000/svg">
<path d="M5.19995 19.9C5.19995 19.6215 5.31058 19.3544 5.50749 19.1575C5.7044 18.9606 5.97147 18.85 6.24995 18.85H8.34995C8.62843 18.85 8.8955 18.9606 9.09241 19.1575C9.28933 19.3544 9.39995 19.6215 9.39995 19.9V20.95C9.39995 21.2285 9.28933 21.4955 9.09241 21.6924C8.8955 21.8894 8.62843 22 8.34995 22H6.24995C5.97147 22 5.7044 21.8894 5.50749 21.6924C5.31058 21.4955 5.19995 21.2285 5.19995 20.95V19.9Z" fill="#05512F" stroke="#05512F" stroke-width="2" stroke-linecap="round" stroke-linejoin="round"/>
<path d="M7.2998 0C9.23579 0 11.0929 0.768802 12.4619 2.1377C13.8309 3.50667 14.5996 5.3638 14.5996 7.2998C14.5996 9.27267 13.8149 11.5666 12.5801 13.3701C11.3618 15.1494 9.52338 16.7002 7.2998 16.7002C5.07625 16.7001 3.2378 15.1494 2.01953 13.3701C0.784701 11.5666 0 9.27266 0 7.2998C5.1648e-05 5.36379 0.768726 3.50666 2.1377 2.1377C3.50666 0.768726 5.36379 5.18368e-05 7.2998 0C6.52552 0.000178359 5.99147 0.530936 5.67383 0.991211C5.33497 1.48246 5.06536 2.1365 4.85352 2.87793C4.4269 4.3711 4.20022 6.33842 4.2002 8.34961C4.2002 10.3609 4.42687 12.329 4.85352 13.8223C5.06535 14.5636 5.335 15.2168 5.67383 15.708C5.99143 16.1684 6.52522 16.7 7.2998 16.7002C8.07453 16.7001 8.60915 16.1685 8.92676 15.708C9.26553 15.2168 9.53526 14.5636 9.74707 13.8223C10.1737 12.329 10.4004 10.3609 10.4004 8.34961C10.4004 6.33845 10.1737 4.37109 9.74707 2.87793C9.53524 2.13652 9.26559 1.48248 8.92676 0.991211C8.60911 0.53086 8.07429 0.000111518 7.2998 0ZM7.2998 2.15918C7.46106 2.40426 7.64883 2.81729 7.82324 3.42773C8.18419 4.69115 8.40036 6.4625 8.40039 8.34961C8.40039 10.2369 8.18424 12.0089 7.82324 13.2725C7.64912 13.8819 7.46087 14.2938 7.2998 14.5391C7.13878 14.2938 6.95043 13.8816 6.77637 13.2725C6.41539 12.009 6.2002 10.2369 6.2002 8.34961C6.20023 6.46257 6.41545 4.69114 6.77637 3.42773C6.95072 2.81753 7.13859 2.40429 7.2998 2.15918Z" fill="#05512F"/>
</svg>
