<svg width="23" height="23" viewBox="0 0 23 23" fill="none" xmlns="http://www.w3.org/2000/svg">
<path d="M1 9.16667C1 10.2391 1.21124 11.3011 1.62165 12.2919C2.03206 13.2827 2.63362 14.183 3.39196 14.9414C4.15031 15.6997 5.05059 16.3013 6.04142 16.7117C7.03224 17.1221 8.09421 17.3333 9.16667 17.3333C10.2391 17.3333 11.3011 17.1221 12.2919 16.7117C13.2827 16.3013 14.183 15.6997 14.9414 14.9414C15.6997 14.183 16.3013 13.2827 16.7117 12.2919C17.1221 11.3011 17.3333 10.2391 17.3333 9.16667C17.3333 8.09421 17.1221 7.03224 16.7117 6.04142C16.3013 5.05059 15.6997 4.15031 14.9414 3.39196C14.183 2.63362 13.2827 2.03206 12.2919 1.62165C11.3011 1.21124 10.2391 1 9.16667 1C8.09421 1 7.03224 1.21124 6.04142 1.62165C5.05059 2.03206 4.15031 2.63362 3.39196 3.39196C2.63362 4.15031 2.03206 5.05059 1.62165 6.04142C1.21124 7.03224 1 8.09421 1 9.16667Z" stroke="#05512F" stroke-width="2" stroke-linecap="round" stroke-linejoin="round"/>
<path d="M3.91602 9.16667C3.91602 9.85622 4.05183 10.539 4.31572 11.1761C4.5796 11.8132 4.96638 12.392 5.45397 12.8796C5.94156 13.3672 6.52041 13.754 7.15748 14.0179C7.79455 14.2817 8.47735 14.4176 9.16691 14.4176C9.85647 14.4176 10.5393 14.2817 11.1763 14.0179C11.8134 13.754 12.3923 13.3672 12.8799 12.8796C13.3674 12.392 13.7542 11.8132 14.0181 11.1761C14.282 10.539 14.4178 9.85622 14.4178 9.16667C14.4178 8.47711 14.282 7.7943 14.0181 7.15724C13.7542 6.52017 13.3674 5.94131 12.8799 5.45372C12.3923 4.96613 11.8134 4.57935 11.1763 4.31547C10.5393 4.05159 9.85647 3.91577 9.16691 3.91577C8.47735 3.91577 7.79455 4.05159 7.15748 4.31547C6.52041 4.57935 5.94156 4.96613 5.45397 5.45372C4.96638 5.94131 4.5796 6.52017 4.31572 7.15724C4.05183 7.7943 3.91602 8.47711 3.91602 9.16667Z" fill="#05512F" stroke="#05512F" stroke-width="2" stroke-linecap="round" stroke-linejoin="round"/>
<path d="M22 22L15 15" stroke="#05512F" stroke-width="2" stroke-linecap="round" stroke-linejoin="round"/>
</svg>
